<?xml version="1.0" encoding="iso-8859-1"?>
<!-- Uploaded to: SVG Repo, www.svgrepo.com, Generator: SVG Repo Mixer Tools -->
<svg fill="white" height="800px" width="800px" version="1.1" id="Layer_1" xmlns="http://www.w3.org/2000/svg" xmlns:xlink="http://www.w3.org/1999/xlink"
	 viewBox="0 0 512.001 512.001" xml:space="preserve">
<g>
	<g>
		<path d="M497.835,14.167c-9.362-9.362-22.317-14.517-35.555-14.148c-13.234,0.37-25.885,6.245-34.707,16.116l-47.585,53.234
			c-4.474-0.399-9.071,0.899-12.742,3.902c-7.756-4.94-16.76-7.598-26.178-7.598c-13.055,0-25.33,5.084-34.561,14.315
			L79.988,306.506c-16.462,16.463-18.69,41.839-6.709,60.731c-3.007,3.672-4.307,8.272-3.909,12.749l-53.235,47.586
			c-9.871,8.822-15.745,21.472-16.116,34.707c-0.371,13.235,4.786,26.194,14.148,35.555c9.048,9.048,21.452,14.167,34.22,14.166
			c0.444,0,0.89-0.006,1.335-0.019c13.234-0.37,25.885-6.245,34.707-16.116l48.264-53.995c0.021,0,0.042,0.004,0.065,0.004
			c3.877,0,7.75-1.279,10.951-3.816c7.986,5.377,17.382,8.271,27.223,8.271c13.055,0,25.33-5.084,34.561-14.315l226.519-226.518
			c16.767-16.767,18.774-42.784,6.035-61.774c2.558-3.221,3.836-7.124,3.821-11.026l53.996-48.266
			c9.871-8.822,15.745-21.472,16.116-34.707C512.353,36.487,507.196,23.528,497.835,14.167z M58.088,472.323
			c-2.412,2.699-5.734,4.242-9.354,4.343c-3.611,0.094-7.023-1.252-9.586-3.813c-2.56-2.561-3.914-5.965-3.813-9.586
			c0.101-3.621,1.644-6.943,4.343-9.355l51.641-46.16l12.929,12.93L58.088,472.323z M407.033,180.515L180.514,407.033
			c-2.558,2.559-5.961,3.967-9.579,3.967s-7.021-1.409-9.58-3.967l-56.384-56.385c-5.282-5.282-5.282-13.877,0-19.16L331.49,104.969
			c2.558-2.559,5.961-3.967,9.579-3.967c3.618,0,7.021,1.408,9.58,3.967l56.384,56.385
			C412.314,166.636,412.314,175.232,407.033,180.515z M472.323,58.09l-51.641,46.16l-12.929-12.93l46.16-51.641
			c2.413-2.699,5.736-4.243,9.355-4.343c3.6-0.097,7.025,1.252,9.586,3.813c2.56,2.561,3.914,5.965,3.813,9.586
			C476.566,52.356,475.023,55.677,472.323,58.09z"/>
	</g>
</g>
</svg>