<?xml version="1.0" encoding="iso-8859-1"?>
<!-- Uploaded to: SVG Repo, www.svgrepo.com, Generator: SVG Repo Mixer Tools -->
<svg fill="#000000" height="800px" width="800px" version="1.1" id="Layer_1" xmlns="http://www.w3.org/2000/svg" xmlns:xlink="http://www.w3.org/1999/xlink" 
	 viewBox="0 0 512 512" xml:space="preserve">
<g>
	<g>
		<path d="M461.697,161.71c-0.212-4.815-4.794-9.199-9.613-9.199H321.362c-4.817,0-9.399,4.383-9.613,9.203l-4.796,110.299
			c-0.195,4.508,3.301,8.321,7.809,8.518c4.498,0.203,8.322-3.3,8.518-7.807l4.515-103.873h117.857l4.517,103.873
			c0.191,4.387,3.807,7.815,8.156,7.815c0.12,0,0.241-0.002,0.362-0.008c4.508-0.197,8.004-4.01,7.807-8.518L461.697,161.71z"/>
	</g>
</g>
<g>
	<g>
		<circle cx="419.404" cy="397.617" r="8.17"/>
	</g>
</g>
<g>
	<g>
		<circle cx="386.723" cy="430.298" r="8.17"/>
	</g>
</g>
<g>
	<g>
		<circle cx="354.043" cy="364.936" r="8.17"/>
	</g>
</g>
<g>
	<g>
		<path d="M475.11,470.189l-7.196-165.514c-0.191-4.373-3.79-7.815-8.161-7.815c-20.311,0.108-31.002,6.441-40.436,12.03
			c-8.83,5.231-16.456,9.749-32.593,9.749c-16.137,0-23.762-4.518-32.593-9.749c-9.433-5.588-20.125-11.922-40.391-12.03
			c-4.415,0-8.016,3.443-8.205,7.815l-7.224,166.119c-0.096,2.227,0.72,4.396,2.261,6.006c1.541,1.61,3.673,2.52,5.901,2.52h160.522
			c4.512,0,8.17-3.657,8.17-8.17C475.165,470.824,475.146,470.504,475.11,470.189z M315.006,462.979l6.493-149.322
			c10.768,1.272,17.135,5.045,24.304,9.291c9.519,5.64,20.308,12.031,40.921,12.031c20.613,0,31.403-6.391,40.921-12.031
			c7.169-4.246,13.535-8.019,24.304-9.291l6.493,149.322H315.006z"/>
	</g>
</g>
<g>
	<g>
		<path d="M386.723,0c-4.512,0-8.17,3.657-8.17,8.17v16.34c0,4.513,3.658,8.17,8.17,8.17s8.17-3.657,8.17-8.17V8.17
			C394.894,3.657,391.236,0,386.723,0z"/>
	</g>
</g>
<g>
	<g>
		<path d="M507.848,470.824l-13.5-310.53c-0.85-19.53-15.48-35.874-34.093-39.645v-17.16h2.723c4.512,0,8.17-3.657,8.17-8.17
			s-3.658-8.17-8.17-8.17h-2.723v-16.34h2.723c4.512,0,8.17-3.657,8.17-8.17s-3.658-8.17-8.17-8.17h-2.723V40.851
			C460.255,18.325,441.93,0,419.404,0c-4.512,0-8.17,3.657-8.17,8.17v16.34c0,4.513,3.658,8.17,8.17,8.17
			c4.512,0,8.17-3.657,8.17-8.17v-6.77c9.51,3.373,16.34,12.459,16.34,23.111v13.617H329.532V40.851
			c0-10.652,6.83-19.738,16.34-23.111v6.77c0,4.513,3.658,8.17,8.17,8.17s8.17-3.657,8.17-8.17V8.17c0-4.513-3.658-8.17-8.17-8.17
			c-22.526,0-40.851,18.325-40.851,40.851v13.617h-2.723c-4.512,0-8.17,3.657-8.17,8.17s3.658,8.17,8.17,8.17h2.723v16.34h-2.723
			c-4.512,0-8.17,3.657-8.17,8.17s3.658,8.17,8.17,8.17h2.723v17.161c-18.613,3.772-33.244,20.115-34.093,39.645l-13.5,310.53
			c-0.476,10.933,3.381,21.256,10.858,29.065c7.477,7.809,17.623,12.109,28.565,12.109h163.404c10.943,0,21.088-4.301,28.565-12.11
			C504.468,492.08,508.324,481.757,507.848,470.824z M329.532,70.809h114.383v16.34H329.532V70.809z M485.189,488.589
			c-4.366,4.559-10.32,7.071-16.763,7.071H305.021c-6.444,0-12.397-2.512-16.763-7.071c-4.365-4.56-6.616-10.616-6.336-17.053
			l13.5-310.53c0.596-13.694,12.231-24.835,25.939-24.835c4.512,0,8.17-3.657,8.17-8.17v-24.511h114.383V128
			c0,4.513,3.658,8.17,8.17,8.17c13.707,0,25.343,11.141,25.939,24.835l13.5,310.53
			C491.804,477.973,489.554,484.028,485.189,488.589z"/>
	</g>
</g>
<g>
	<g>
		<path d="M200.25,161.71c-0.212-4.815-4.794-9.199-9.613-9.199H59.915c-4.817,0-9.399,4.383-9.613,9.203l-4.796,110.299
			c-0.195,4.508,3.301,8.321,7.809,8.518c4.501,0.203,8.322-3.3,8.518-7.807l4.515-103.873h117.857l4.516,103.873
			c0.191,4.387,3.807,7.815,8.156,7.815c0.12,0,0.241-0.002,0.362-0.008c4.508-0.197,8.004-4.01,7.807-8.518L200.25,161.71z"/>
	</g>
</g>
<g>
	<g>
		<circle cx="141.617" cy="382.638" r="8.17"/>
	</g>
</g>
<g>
	<g>
		<circle cx="108.936" cy="415.319" r="8.17"/>
	</g>
</g>
<g>
	<g>
		<path d="M213.663,470.189l-7.196-165.514c-0.191-4.373-3.79-7.815-8.161-7.815c-20.311,0.108-31.002,6.441-40.436,12.03
			c-8.83,5.231-16.456,9.749-32.593,9.749s-23.762-4.518-32.593-9.749c-9.433-5.588-20.125-11.922-40.391-12.03
			c-4.415,0-8.016,3.443-8.205,7.815l-7.224,166.119c-0.096,2.227,0.72,4.396,2.262,6.006c1.541,1.61,3.673,2.52,5.901,2.52h160.522
			c4.512,0,8.17-3.657,8.17-8.17C213.719,470.824,213.699,470.504,213.663,470.189z M53.56,462.979l6.493-149.322
			c10.768,1.272,17.135,5.045,24.304,9.291c9.518,5.64,20.307,12.031,40.921,12.031s31.403-6.391,40.921-12.031
			c7.169-4.246,13.535-8.019,24.304-9.291l6.493,149.322H53.56z"/>
	</g>
</g>
<g>
	<g>
		<path d="M125.277,0c-4.512,0-8.17,3.657-8.17,8.17v16.34c0,4.513,3.658,8.17,8.17,8.17c4.512,0,8.17-3.657,8.17-8.17V8.17
			C133.447,3.657,129.789,0,125.277,0z"/>
	</g>
</g>
<g>
	<g>
		<path d="M246.402,470.824l-13.5-310.529c-0.85-19.53-15.48-35.874-34.093-39.645v-17.161h2.723c4.512,0,8.17-3.657,8.17-8.17
			s-3.658-8.17-8.17-8.17h-2.723v-16.34h2.723c4.512,0,8.17-3.657,8.17-8.17s-3.658-8.17-8.17-8.17h-2.723V40.851
			C198.809,18.325,180.483,0,157.957,0c-4.512,0-8.17,3.657-8.17,8.17v16.34c0,4.513,3.658,8.17,8.17,8.17s8.17-3.657,8.17-8.17
			v-6.77c9.51,3.373,16.34,12.459,16.34,23.111v13.617H68.085V40.851c0-10.652,6.83-19.738,16.34-23.111v6.77
			c0,4.513,3.658,8.17,8.17,8.17s8.17-3.657,8.17-8.17V8.17c0-4.513-3.658-8.17-8.17-8.17C70.07,0,51.745,18.325,51.745,40.851
			v13.617h-2.723c-4.512,0-8.17,3.657-8.17,8.17s3.658,8.17,8.17,8.17h2.723v16.34h-2.723c-4.512,0-8.17,3.657-8.17,8.17
			s3.658,8.17,8.17,8.17h2.723v17.161c-18.613,3.772-33.244,20.115-34.093,39.645l-13.5,310.529
			c-0.476,10.933,3.381,21.256,10.858,29.065c7.477,7.81,17.623,12.11,28.565,12.11h163.404c10.943,0,21.088-4.301,28.565-12.11
			C243.021,492.08,246.878,481.757,246.402,470.824z M68.085,70.809h114.383v16.34H68.085V70.809z M223.742,488.589
			c-4.366,4.559-10.32,7.071-16.763,7.071H43.574c-6.444,0-12.397-2.512-16.763-7.071c-4.365-4.56-6.616-10.616-6.336-17.053
			l13.5-310.53c0.596-13.694,12.231-24.835,25.939-24.835c4.512,0,8.17-3.657,8.17-8.17v-24.511h114.383V128
			c0,4.513,3.658,8.17,8.17,8.17c13.707,0,25.343,11.141,25.939,24.835l13.5,310.53
			C230.358,477.973,228.107,484.028,223.742,488.589z"/>
	</g>
</g>
</svg>