<?xml version="1.0" encoding="iso-8859-1"?>
<!-- Uploaded to: SVG Repo, www.svgrepo.com, Generator: SVG Repo Mixer Tools -->
<svg fill="white" height="800px" width="800px" version="1.1" id="Layer_1" xmlns="http://www.w3.org/2000/svg" xmlns:xlink="http://www.w3.org/1999/xlink"
	 viewBox="0 0 512 512" xml:space="preserve">
<g>
	<g>
		<path d="M400.308,15.685h-70.185C329.724,6.722,322.381,0,313.356,0h-66.101c-9.026,0-16.367,6.722-16.767,15.685h-71.236
			c-9.281,0-16.805,7.524-16.805,16.805c0,9.281,7.524,16.805,16.805,16.805h1.737v50.416h-12.943
			c-29.071,0-53.157,23.804-53.157,52.874v71.443c0,29.07,24.086,52.699,53.157,52.699h12.943v21.576
			c0,26.915,13.836,50.594,34.982,64.13c-0.008,0.203-0.251,0.401-0.251,0.606v24.163c-14.565,10.995-22.407,27.808-22.407,45.923
			v61.511c0,9.281,7.281,17.365,16.562,17.365h179.809c9.281,0,16.495-8.084,16.495-17.365v-61.511
			c0-18.115-7.842-34.928-22.407-45.923v-24.163c0-0.204-0.244-0.402-0.251-0.605c21.145-13.536,34.982-37.215,34.982-64.13V49.295
			h1.805c9.281,0,16.805-7.524,16.805-16.805C417.113,23.209,409.589,15.685,400.308,15.685z M160.989,243.116h-12.943
			c-10.538,0-19.547-8.552-19.547-19.089v-71.443c0-10.537,9.009-19.263,19.547-19.263h12.943V243.116z M352.568,478.39H206.923
			v-45.266c0-8.954,5.204-17.542,13.543-21.882c5.56-2.893,8.864-8.64,8.864-14.909V374.05c2.241,0.232,4.981,0.147,7.453,0.147
			h85.995c2.471,0,5.143,0.085,7.384-0.147v22.284c0,6.268,3.304,12.015,8.864,14.907c8.339,4.339,13.543,12.928,13.543,21.882
			V478.39z M364.892,119.877h-51.536c-9.281,0-16.805,7.524-16.805,16.805c0,9.281,7.524,16.805,16.805,16.805h51.536v31.37h-51.536
			c-9.281,0-16.805,7.524-16.805,16.805c0,9.281,7.524,16.805,16.805,16.805h51.536v30.249h-51.536
			c-9.281,0-16.805,7.524-16.805,16.805c0,9.281,7.524,16.805,16.805,16.805h51.536v15.974c0,23.433-18.682,42.284-42.115,42.284
			h-85.995c-23.433,0-42.183-18.851-42.183-42.284V49.295h170.293V119.877z"/>
	</g>
</g>
</svg>