<?xml version="1.0" encoding="iso-8859-1"?>
<!-- Uploaded to: SVG Repo, www.svgrepo.com, Generator: SVG Repo Mixer Tools -->
<svg fill="white" height="800px" width="800px" version="1.1" id="Layer_1" xmlns="http://www.w3.org/2000/svg" xmlns:xlink="http://www.w3.org/1999/xlink"
	 viewBox="0 0 511.999 511.999" xml:space="preserve">
<g>
	<g>
		<path d="M500.393,116.024L395.977,11.607C388.493,4.124,378.542,0,367.956,0s-20.537,4.123-28.019,11.607L213.275,138.268
			c-10.28,10.28-14.104,25.327-9.977,39.271l23.854,80.561c0.262,0.884,0.558,1.752,0.876,2.606l-26.037,26.038l-7.582-7.582
			c-6.631-6.631-17.385-6.631-24.017,0l-157.48,157.48c-17.215,17.215-17.216,45.228-0.001,62.445c0.001,0,0.001,0,0.001,0.001
			c8.609,8.608,19.916,12.91,31.222,12.91c11.307,0,22.616-4.305,31.222-12.911l157.481-157.481c6.632-6.631,6.632-17.385,0-24.017
			l-6.828-6.828l26.404-26.405c0.494,0.166,0.983,0.342,1.485,0.49l80.562,23.854h0.001c3.711,1.099,7.501,1.634,11.259,1.634
			c10.356,0,20.467-4.067,28.01-11.611l126.659-126.661c7.485-7.484,11.608-17.435,11.608-28.021S507.877,123.508,500.393,116.024z
			 M51.341,475.071c-3.974,3.969-10.438,3.971-14.412,0c-3.973-3.974-3.973-10.439,0-14.412l145.472-145.472l14.412,14.412
			L51.341,475.071z M476.376,148.047L349.715,274.708c-1.468,1.468-3.615,2.016-5.611,1.425h0.001l-80.563-23.854
			c-1.846-0.546-3.274-1.975-3.82-3.821l-23.854-80.561c-0.59-1.993-0.043-4.142,1.425-5.611L363.955,35.623
			c1.441-1.441,3.126-1.658,4.001-1.658s2.561,0.215,4.003,1.659l104.416,104.416c1.442,1.442,1.659,3.128,1.659,4.003
			S477.818,146.603,476.376,148.047z"/>
	</g>
</g>
<g>
	<g>
		<path d="M375.006,72.1c-6.631-6.631-17.385-6.631-24.017,0l-84.861,84.861c-6.632,6.631-6.632,17.385,0,24.017
			c3.316,3.316,7.663,4.975,12.008,4.975s8.693-1.659,12.008-4.975l84.861-84.861C381.639,89.485,381.639,78.732,375.006,72.1z"/>
	</g>
</g>
<g>
	<g>
		<path d="M407.83,104.924c-6.631-6.631-17.385-6.631-24.017,0l-84.861,84.861c-6.632,6.631-6.632,17.385,0,24.017
			c3.316,3.316,7.663,4.975,12.008,4.975s8.693-1.659,12.008-4.975l84.861-84.861C414.462,122.309,414.462,111.555,407.83,104.924z"
			/>
	</g>
</g>
<g>
	<g>
		<path d="M440.653,137.747c-6.629-6.632-17.383-6.632-24.016,0l-84.862,84.861c-6.632,6.631-6.632,17.385,0,24.017
			c3.316,3.317,7.663,4.975,12.008,4.975c4.345,0,8.693-1.659,12.008-4.975l84.862-84.861
			C447.285,155.133,447.285,144.38,440.653,137.747z"/>
	</g>
</g>
</svg>